{
  "accessors": [
    {
      "bufferView": 2,
      "componentType": 5126,
      "count": 5933,
      "max": [
        314.4271240234375,
        357.6012268066406,
        99.26179504394531
      ],
      "min": [
        -281.87371826171875,
        -341.7776794433594,
        -95.65947723388672
      ],
      "type": "VEC3"
    },
    {
      "bufferView": 2,
      "byteOffset": 71196,
      "componentType": 5126,
      "count": 5933,
      "max": [
        1.0,
        1.0,
        1.0
      ],
      "min": [
        -1.0,
        -1.0,
        -1.0
      ],
      "type": "VEC3"
    },
    {
      "bufferView": 1,
      "componentType": 5126,
      "count": 5933,
      "max": [
        7.652021884918213,
        7.652021884918213
      ],
      "min": [
        -6.652021408081055,
        -6.335550785064697
      ],
      "type": "VEC2"
    },
    {
      "bufferView": 0,
      "componentType": 5125,
      "count": 14358,
      "type": "SCALAR"
    },
    {
      "bufferView": 2,
      "byteOffset": 142392,
      "componentType": 5126,
      "count": 55,
      "max": [
        279.57354736328125,
        124.48668670654297,
        10.1922607421875
      ],
      "min": [
        37.19160461425781,
        -230.81683349609375,
        -38.913848876953125
      ],
      "type": "VEC3"
    },
    {
      "bufferView": 2,
      "byteOffset": 143052,
      "componentType": 5126,
      "count": 55,
      "max": [
        0.9999999403953552,
        1.0,
        2.8701939299935475e-05
      ],
      "min": [
        -0.6020593047142029,
        -0.5532633662223816,
        -1.0
      ],
      "type": "VEC3"
    },
    {
      "bufferView": 1,
      "byteOffset": 47464,
      "componentType": 5126,
      "count": 55,
      "max": [
        2.5491607189178467,
        2.989731788635254
      ],
      "min": [
        -5.0914692878723145,
        -0.7782771587371826
      ],
      "type": "VEC2"
    },
    {
      "bufferView": 0,
      "byteOffset": 57432,
      "componentType": 5125,
      "count": 129,
      "type": "SCALAR"
    },
    {
      "bufferView": 2,
      "byteOffset": 143712,
      "componentType": 5126,
      "count": 236,
      "max": [
        280.18505859375,
        125.81045532226563,
        7.4072113037109375
      ],
      "min": [
        37.19160461425781,
        -231.64271545410156,
        -40.42759704589844
      ],
      "type": "VEC3"
    },
    {
      "bufferView": 2,
      "byteOffset": 146544,
      "componentType": 5126,
      "count": 236,
      "max": [
        1.0,
        1.0,
        1.0
      ],
      "min": [
        -1.0,
        -1.0,
        -1.0
      ],
      "type": "VEC3"
    },
    {
      "bufferView": 1,
      "byteOffset": 47904,
      "componentType": 5126,
      "count": 236,
      "max": [
        6.103699684143066,
        3.016207218170166
      ],
      "min": [
        -5.103699684143066,
        -4.116335391998291
      ],
      "type": "VEC2"
    },
    {
      "bufferView": 0,
      "byteOffset": 57948,
      "componentType": 5125,
      "count": 588,
      "type": "SCALAR"
    }
  ],
  "asset": {
    "extras": {
      "author": "TRYFIELD (https://sketchfab.com/tryfield)",
      "license": "CC-BY-4.0 (http://creativecommons.org/licenses/by/4.0/)",
      "source": "https://sketchfab.com/3d-models/brutalist-concrete-map-free-retro-prop-1635f8a5869d45ea8347eae136df657b",
      "title": "Brutalist Concrete Map (Free Retro Prop)"
    },
    "generator": "Sketchfab-0.13.0",
    "version": "2.0"
  },
  "bufferViews": [
    {
      "buffer": 0,
      "byteLength": 60300,
      "name": "floatBufferViews",
      "target": 34963
    },
    {
      "buffer": 0,
      "byteLength": 49792,
      "byteOffset": 60300,
      "byteStride": 8,
      "name": "floatBufferViews",
      "target": 34962
    },
    {
      "buffer": 0,
      "byteLength": 149376,
      "byteOffset": 110092,
      "byteStride": 12,
      "name": "floatBufferViews",
      "target": 34962
    }
  ],
  "buffers": [
    {
      "byteLength": 259468,
      "uri": "scene.bin"
    }
  ],
  "extensionsUsed": [
    "KHR_texture_transform",
    "KHR_materials_specular",
    "KHR_materials_clearcoat",
    "KHR_materials_transmission"
  ],
  "images": [
    {
      "uri": "textures/Material_25_metallicRoughness.png"
    }
  ],
  "materials": [
    {
      "doubleSided": true,
      "extensions": {
        "KHR_materials_specular": {
          "specularColorFactor": [
            1.0,
            1.0,
            1.0
          ],
          "specularFactor": 0.18164132261465363
        }
      },
      "name": "Material_25",
      "occlusionTexture": {
        "extensions": {
          "KHR_texture_transform": {
            "scale": [
              0.20000000000000073,
              0.20000000000000073
            ]
          }
        },
        "index": 0
      },
      "pbrMetallicRoughness": {
        "baseColorFactor": [
          0.6168829757888503,
          0.6147339478952478,
          0.6094278832472172,
          1.0
        ],
        "metallicFactor": 0.04173524217474023,
        "metallicRoughnessTexture": {
          "index": 0
        },
        "roughnessFactor": 0.9420004554402699
      }
    },
    {
      "alphaMode": "BLEND",
      "doubleSided": true,
      "extensions": {
        "KHR_materials_clearcoat": {
          "clearcoatFactor": 1.0,
          "clearcoatRoughnessFactor": 0.04
        },
        "KHR_materials_specular": {
          "specularColorFactor": [
            1.0,
            1.0,
            1.0
          ],
          "specularFactor": 0.0
        },
        "KHR_materials_transmission": {
          "transmissionFactor": 0.93393326557484
        }
      },
      "name": "02_-_Default",
      "pbrMetallicRoughness": {
        "baseColorFactor": [
          1.0,
          1.0,
          1.0,
          0.25
        ],
        "metallicFactor": 0.0964810997381846,
        "roughnessFactor": 0.21205568792767826
      }
    },
    {
      "doubleSided": true,
      "name": "02_-_Default_0",
      "pbrMetallicRoughness": {
        "baseColorFactor": [
          0.09952007275930369,
          0.09750771481754963,
          0.09750771481754963,
          1.0
        ],
        "roughnessFactor": 0.5770280716839741
      }
    }
  ],
  "meshes": [
    {
      "name": "Box001_Material #25_0",
      "primitives": [
        {
          "attributes": {
            "NORMAL": 1,
            "POSITION": 0,
            "TEXCOORD_0": 2
          },
          "indices": 3,
          "material": 0,
          "mode": 4
        }
      ]
    },
    {
      "name": "Box001_02 - Default_0",
      "primitives": [
        {
          "attributes": {
            "NORMAL": 5,
            "POSITION": 4,
            "TEXCOORD_0": 6
          },
          "indices": 7,
          "material": 1,
          "mode": 4
        }
      ]
    },
    {
      "name": "Box001_02 - Default_0",
      "primitives": [
        {
          "attributes": {
            "NORMAL": 9,
            "POSITION": 8,
            "TEXCOORD_0": 10
          },
          "indices": 11,
          "material": 2,
          "mode": 4
        }
      ]
    }
  ],
  "nodes": [
    {
      "children": [
        1
      ],
      "matrix": [
        1.0,
        0.0,
        0.0,
        0.0,
        0.0,
        2.220446049250313e-16,
        -1.0,
        0.0,
        0.0,
        1.0,
        2.220446049250313e-16,
        0.0,
        0.0,
        0.0,
        0.0,
        1.0
      ],
      "name": "Sketchfab_model"
    },
    {
      "children": [
        2
      ],
      "matrix": [
        0.009999999776482582,
        0.0,
        0.0,
        0.0,
        0.0,
        0.0,
        0.009999999776482582,
        0.0,
        0.0,
        -0.009999999776482582,
        0.0,
        0.0,
        0.0,
        0.0,
        0.0,
        1.0
      ],
      "name": "cdba44c3d3d04e409971f3fbc9b5c92f.fbx"
    },
    {
      "children": [
        3
      ],
      "name": "RootNode"
    },
    {
      "children": [
        4,
        5,
        6
      ],
      "matrix": [
        1.0,
        0.0,
        0.0,
        0.0,
        0.0,
        2.220446049250313e-16,
        -1.0,
        0.0,
        0.0,
        1.0,
        2.220446049250313e-16,
        0.0,
        165.83555603027344,
        73.46939086914063,
        -212.0732421875,
        1.0
      ],
      "name": "Box001"
    },
    {
      "mesh": 0,
      "name": "Box001_Material #25_0"
    },
    {
      "mesh": 1,
      "name": "Box001_02 - Default_0"
    },
    {
      "mesh": 2,
      "name": "Box001_02 - Default_0"
    }
  ],
  "samplers": [
    {
      "magFilter": 9729,
      "minFilter": 9987,
      "wrapS": 10497,
      "wrapT": 10497
    }
  ],
  "scene": 0,
  "scenes": [
    {
      "name": "Sketchfab_Scene",
      "nodes": [
        0
      ]
    }
  ],
  "textures": [
    {
      "sampler": 0,
      "source": 0
    }
  ]
}
